<svg width="512" height="512" viewBox="0 0 512 512" fill="none" xmlns="http://www.w3.org/2000/svg">
  <!-- Safari Pinned Tab Icon - 单色版本 -->
  <path d="M256 32C132.3 32 32 132.3 32 256s100.3 224 224 224 224-100.3 224-224S379.7 32 256 32zm0 168c-44.2 0-80 35.8-80 80s35.8 80 80 80 80-35.8 80-80-35.8-80-80-80z" fill="#000000"/>
  
  <!-- 欧元符号 -->
  <path d="M256 220c-19.9 0-36 16.1-36 36s16.1 36 36 36c8.8 0 16.8-3.2 23.1-8.5l8.9 8.9c-9.4 8.1-21.6 13.6-35 13.6-28.7 0-52-23.3-52-52s23.3-52 52-52c13.4 0 25.6 5.5 35 13.6l-8.9 8.9c-6.3-5.3-14.3-8.5-23.1-8.5z" fill="#ffffff"/>
  
  <!-- 图表线条 -->
  <path d="M120 320 L200 300 L280 340 L360 310 L392 330" stroke="#ffffff" stroke-width="4" fill="none"/>
</svg>